# Blender 5.0.1
# www.blender.org
mtllib Coche_Cofre.mtl
g Coche_Cofre_Mesh
v -0.036592 0.003653 0.788332
v -1.492907 -0.296254 0.557567
v -1.339611 -0.161652 0.613499
v -0.649640 -0.060248 0.697080
v -1.035815 -0.105023 0.647548
v -0.002050 -0.016478 0.782328
v -1.465621 -0.286306 0.351714
v -1.431781 -0.273968 0.096417
v -0.043188 0.003567 0.755180
v -0.649640 -0.059274 0.667813
v -1.035815 -0.104049 0.620390
v -1.339371 -0.161557 0.587791
v -0.008646 -0.016564 0.749432
v -0.036592 0.003653 -0.768992
v -1.492907 -0.296254 -0.538227
v -1.339611 -0.161652 -0.594160
v -0.649640 -0.060248 -0.677741
v -1.035815 -0.105023 -0.628208
v -1.420283 -0.269776 0.009670
v -0.191520 0.001639 0.009670
v -1.333981 -0.159411 0.009670
v -0.649640 -0.037364 0.009670
v -1.035815 -0.082139 0.009670
v -0.002050 -0.016478 -0.762988
v -0.156978 -0.018492 0.009670
v -1.465621 -0.286306 -0.332374
v -1.431781 -0.273968 -0.077077
v -0.043188 0.003567 -0.735840
v -0.649640 -0.059274 -0.648474
v -1.035815 -0.104049 -0.601050
v -1.339371 -0.161557 -0.568451
v -0.008646 -0.016564 -0.730092
vn -0.1185 0.9923 0.0347
vn -0.1165 0.9926 0.0347
vn -0.1151 0.9927 0.0356
vn 0.2077 -0.9779 -0.0253
vn 0.2318 -0.9727 -0.0119
vn 0.1897 -0.9812 -0.0352
vn -0.1176 0.9926 0.0313
vn -0.0943 0.9952 0.0264
vn -0.0848 0.9958 0.0332
vn 0.6675 -0.7444 0.0204
vn 0.6531 -0.7556 0.0500
vn 0.7565 -0.6533 0.0313
vn 0.4883 0.8669 -0.0997
vn 0.4884 0.8669 -0.1000
vn 0.4886 0.8668 -0.0998
vn 0.4888 0.8667 -0.0999
vn 0.5006 0.8597 -0.1018
vn 0.5009 0.8595 -0.1019
vn -0.1074 0.9937 0.0325
vn -0.1011 0.9947 0.0182
vn 0.1864 -0.9825 -0.0037
vn 0.1869 -0.9818 -0.0336
vn 0.1869 -0.9817 -0.0352
vn -0.1194 0.9922 0.0355
vn -0.1178 0.9925 -0.0338
vn -0.1165 0.9926 -0.0347
vn -0.1176 0.9926 -0.0312
vn 0.2077 -0.9779 0.0253
vn 0.2318 -0.9727 0.0119
vn 0.2509 -0.9680 0.0013
vn -0.0943 0.9952 -0.0264
vn -0.1011 0.9947 -0.0182
vn 0.6990 -0.7148 -0.0226
vn 0.6992 -0.7149 -0.0039
vn 0.7608 -0.6468 -0.0529
vn 0.4885 0.8668 0.1000
vn 0.4886 0.8668 0.0995
vn 0.4888 0.8667 0.0999
vn 0.5005 0.8597 0.1018
vn 0.5009 0.8595 0.1019
vn -0.1074 0.9937 -0.0325
vn -0.1064 0.9942 -0.0186
vn 0.1864 -0.9825 0.0036
vn 0.1869 -0.9818 0.0336
vn 0.1863 -0.9825 0.0019
vn -0.1194 0.9922 -0.0355
vn 0.2509 -0.9680 -0.0013
vn 0.7856 -0.6143 0.0744
vn 0.7706 -0.6366 0.0281
vn 0.6591 -0.7520 0.0034
vn 0.6535 -0.7554 0.0468
vn 0.4880 0.8671 -0.1001
vn 0.5005 0.8597 -0.1018
vn -0.1064 0.9942 0.0186
vn 0.1863 -0.9825 -0.0019
vn -0.1151 0.9927 -0.0356
vn 0.1897 -0.9812 0.0352
vn -0.0848 0.9958 -0.0332
vn 0.7856 -0.6143 -0.0744
vn 0.6488 -0.7594 -0.0493
vn 0.6725 -0.7395 -0.0284
vn 0.6726 -0.7395 -0.0284
vn 0.4880 0.8671 0.1001
vn 0.1869 -0.9817 0.0352
vt 0.000000 0.000000
s 1
g off
g Coche_Cofre_Blue.001
usemtl Blue.001
f 11/1/1 22/1/2 23/1/3
f 12/1/4 23/1/5 11/1/6
f 10/1/7 20/1/8 22/1/9
s 2
f 12/1/10 7/1/11 8/1/12
s 3
f 1/1/13 13/1/14 9/1/15
s 4
f 9/1/16 25/1/17 20/1/18
s 1
f 4/1/19 9/1/20 10/1/7
f 3/1/21 11/1/22 5/1/23
f 5/1/24 10/1/7 11/1/1
s 5
f 30/1/25 22/1/26 29/1/27
s 6
f 31/1/28 23/1/29 21/1/30
s 5
f 29/1/27 20/1/31 28/1/32
s 7
f 26/1/33 31/1/34 21/1/35
s 8
f 32/1/36 14/1/37 28/1/38
f 25/1/39 28/1/38 20/1/40
s 5
f 17/1/41 28/1/32 14/1/42
f 16/1/43 30/1/44 31/1/45
f 18/1/46 29/1/27 17/1/41
s 1
f 11/1/1 10/1/7 22/1/2
f 12/1/4 21/1/47 23/1/5
f 10/1/7 9/1/20 20/1/8
s 2
f 8/1/12 19/1/48 21/1/49
f 12/1/10 3/1/50 2/1/51
f 8/1/12 21/1/49 12/1/10
f 12/1/10 2/1/51 7/1/11
s 3
f 1/1/13 6/1/52 13/1/14
f 9/1/15 13/1/14 25/1/53
s 1
f 4/1/19 1/1/54 9/1/20
s 9
f 3/1/21 12/1/55 11/1/22
s 1
f 5/1/24 4/1/19 10/1/7
s 5
f 30/1/25 23/1/56 22/1/26
f 31/1/28 30/1/57 23/1/29
f 29/1/27 22/1/58 20/1/31
s 7
f 21/1/35 19/1/59 27/1/59
s 10
f 26/1/33 15/1/60 16/1/61
s 7
f 21/1/35 27/1/59 26/1/33
f 26/1/33 16/1/62 31/1/34
s 11
f 32/1/63 24/1/63 14/1/63
s 8
f 25/1/39 32/1/36 28/1/38
s 5
f 17/1/41 29/1/27 28/1/32
f 16/1/43 18/1/64 30/1/44
f 18/1/46 30/1/25 29/1/27
